<svg xmlns="http://www.w3.org/2000/svg" width="512" height="512" viewBox="0 0 512 512">
  <defs>
    <!-- userSpaceOnUse: an objectBoundingBox gradient is not drawn at all on a
         perfectly horizontal or vertical line (zero-area box), which silently
         drops the T and the K stem. Coordinates are in mark space, so they are
         scaled by the same transform as the paths. -->
    <linearGradient id="g" gradientUnits="userSpaceOnUse" x1="0" y1="4" x2="0" y2="96">
      <stop offset="0" stop-color="#ffffff"/>
      <stop offset=".55" stop-color="#d6dee6"/>
      <stop offset="1" stop-color="#8e9aa7"/>
    </linearGradient>
    <linearGradient id="tile" x1="0" y1="0" x2="0" y2="1">
      <stop offset="0" stop-color="#161b21"/>
      <stop offset="1" stop-color="#06080a"/>
    </linearGradient>
  </defs>
  <rect x="0" y="0" width="512" height="512" rx="112.64" ry="112.64" fill="url(#tile)"/>
  <rect x=".5" y=".5" width="511" height="511" rx="112.14" ry="112.14"
        fill="none" stroke="#2a323b" stroke-width="1"/>
  
    <g transform="translate(15.36 15.36) scale(4.812799999999999)" fill="none"
       stroke-linejoin="miter" stroke-linecap="butt" vector-effect="none">
      <g stroke="url(#g)" stroke-width="3"><path d="M50 4 L96 50 L50 96 L4 50 Z"/></g>
      <g stroke="url(#g)" stroke-width="3.4"><path d="M25 63 L25 37 L33.75 53.5 L42.5 37 L42.5 63"/><path d="M47.5 37 L60.5 37"/><path d="M54 37 L54 63"/><path d="M65.5 37 L65.5 63"/><path d="M75 37 L65.5 50"/><path d="M65.5 50 L75 63"/></g>
    </g>
</svg>